# 3ds Max Wavefront OBJ Exporter v0.97b - (c)2007 guruware
# File Created: 05.03.2018 04:36:40

mtllib ExportedObj;Ground_2.mtl

#
# object Ground
#

v  0.5000 0.0000 -0.7500
v  -0.5000 0.0000 -0.7500
v  0.5000 0.0000 0.7500
v  -0.5000 0.0000 0.7500
v  -0.5000 0.0000 -2.2430
v  -2.8826 0.0000 -2.2430
v  -0.5000 0.0000 2.2430
v  -2.8826 0.0000 2.2430
v  -0.6739 0.0000 -7.1395
v  -2.7087 0.0000 -7.1395
v  -0.6739 0.0000 -2.2430
v  -2.7087 0.0000 -2.2430
v  -2.8826 0.0000 -0.8843
v  -5.3984 0.0000 -0.8843
v  -2.8826 0.0000 0.8843
v  -5.3984 0.0000 0.8843
v  1.4746 0.0000 -6.5932
v  -0.6739 0.0000 -6.5932
v  1.4746 0.0000 -2.7893
v  -0.6739 0.0000 -2.7893
# 20 vertices

vn 0.0000 1.0000 -0.0000
vn 0.0000 -1.0000 -0.0000
# 2 vertex normals

vt 0.5727 0.5799 0.5000
vt 0.4273 0.5799 0.5000
vt 0.5727 0.4201 0.5000
vt 0.4273 0.4201 0.5000
vt 0.4273 0.7391 0.5000
vt 0.0806 0.7391 0.5000
vt 0.4273 0.2609 0.5000
vt 0.0806 0.2609 0.5000
vt 0.4019 1.2609 0.5000
vt 0.1059 1.2609 0.5000
vt 0.4019 0.7391 0.5000
vt 0.1059 0.7391 0.5000
vt 0.0806 0.5942 0.5000
vt -0.2855 0.5942 0.5000
vt 0.0806 0.4058 0.5000
vt -0.2855 0.4058 0.5000
vt 0.7145 1.2027 0.5000
vt 0.4019 1.2027 0.5000
vt 0.7145 0.7973 0.5000
vt 0.4019 0.7973 0.5000
# 20 texture coords

g Ground
usemtl _ExportedObj_Ground_2_ExportedObj_Ground_2Ground
s 1
f 1/1/1 2/2/1 3/3/1 
f 4/4/1 3/3/1 2/2/1 
f 5/5/1 6/6/1 7/7/1 
f 8/8/1 7/7/1 6/6/1 
f 9/9/1 10/10/1 11/11/1 
f 12/12/1 11/11/1 10/10/1 
f 13/13/1 14/14/1 15/15/1 
f 16/16/1 15/15/1 14/14/1 
f 17/17/1 18/18/1 19/19/1 
f 20/20/1 19/19/1 18/18/1 
f 1/1/2 3/3/2 2/2/2 
f 4/4/2 2/2/2 3/3/2 
f 5/5/2 7/7/2 6/6/2 
f 8/8/2 6/6/2 7/7/2 
f 9/9/2 11/11/2 10/10/2 
f 12/12/2 10/10/2 11/11/2 
f 13/13/2 15/15/2 14/14/2 
f 16/16/2 14/14/2 15/15/2 
f 17/17/2 19/19/2 18/18/2 
f 20/20/2 18/18/2 19/19/2 
# 0 polygons - 20 triangles

