# 3ds Max Wavefront OBJ Exporter v0.97b - (c)2007 guruware
# File Created: 05.03.2018 04:37:20

mtllib ExportedObj;Ground_3.mtl

#
# object Ground
#

v  -39.5000 0.0000 -20.7500
v  -40.5000 0.0000 -20.7500
v  -39.5000 0.0000 -19.2500
v  -40.5000 0.0000 -19.2500
v  -40.5000 0.0000 -21.0550
v  -42.7033 0.0000 -21.0550
v  -40.5000 0.0000 -18.9450
v  -42.7033 0.0000 -18.9450
v  -42.7033 0.0000 -21.0529
v  -47.3800 0.0000 -21.0529
v  -42.7033 0.0000 -18.9471
v  -47.3800 0.0000 -18.9471
v  -43.4731 0.0000 -18.9471
v  -46.6103 0.0000 -18.9471
v  -43.4731 0.0000 -13.9696
v  -46.6103 0.0000 -13.9696
v  -39.4367 0.0000 -18.8767
v  -43.4731 0.0000 -18.8767
v  -39.4367 0.0000 -14.0400
v  -43.4731 0.0000 -14.0400
# 20 vertices

vn 0.0000 1.0000 -0.0000
vn 0.0000 -1.0000 -0.0000
# 2 vertex normals

vt -0.3337 1.4855 0.5000
vt -0.3548 1.4855 0.5000
vt -0.3337 1.4143 0.5000
vt -0.3548 1.4143 0.5000
vt -0.3548 1.5000 0.5000
vt -0.4013 1.5000 0.5000
vt -0.3548 1.3998 0.5000
vt -0.4013 1.3998 0.5000
vt -0.4013 1.4999 0.5000
vt -0.5000 1.4999 0.5000
vt -0.4013 1.3999 0.5000
vt -0.5000 1.3999 0.5000
vt -0.4175 1.3999 0.5000
vt -0.4838 1.3999 0.5000
vt -0.4175 1.1635 0.5000
vt -0.4838 1.1635 0.5000
vt -0.3323 1.3965 0.5000
vt -0.4175 1.3965 0.5000
vt -0.3323 1.1668 0.5000
vt -0.4175 1.1668 0.5000
# 20 texture coords

g Ground
usemtl _ExportedObj_Ground_3_ExportedObj_Ground_3Ground
s 1
f 1/1/1 2/2/1 3/3/1 
f 4/4/1 3/3/1 2/2/1 
f 5/5/1 6/6/1 7/7/1 
f 8/8/1 7/7/1 6/6/1 
f 9/9/1 10/10/1 11/11/1 
f 12/12/1 11/11/1 10/10/1 
f 13/13/1 14/14/1 15/15/1 
f 16/16/1 15/15/1 14/14/1 
f 17/17/1 18/18/1 19/19/1 
f 20/20/1 19/19/1 18/18/1 
f 1/1/2 3/3/2 2/2/2 
f 4/4/2 2/2/2 3/3/2 
f 5/5/2 7/7/2 6/6/2 
f 8/8/2 6/6/2 7/7/2 
f 9/9/2 11/11/2 10/10/2 
f 12/12/2 10/10/2 11/11/2 
f 13/13/2 15/15/2 14/14/2 
f 16/16/2 14/14/2 15/15/2 
f 17/17/2 19/19/2 18/18/2 
f 20/20/2 18/18/2 19/19/2 
# 0 polygons - 20 triangles

