# 3ds Max Wavefront OBJ Exporter v0.97b - (c)2007 guruware
# File Created: 05.03.2018 04:34:40

mtllib ExportedObj;Ground_0.mtl

#
# object Ground
#

v  -39.5000 0.0000 -0.7500
v  -40.5000 0.0000 -0.7500
v  -39.5000 0.0000 0.7500
v  -40.5000 0.0000 0.7500
v  -40.5000 0.0000 -1.6362
v  -45.1958 0.0000 -1.6362
v  -40.5000 0.0000 1.6362
v  -45.1958 0.0000 1.6362
v  -45.1958 0.0000 -1.0326
v  -47.0886 0.0000 -1.0326
v  -45.1958 0.0000 1.0326
v  -47.0886 0.0000 1.0326
v  -47.0886 0.0000 -0.9306
v  -50.0475 0.0000 -0.9306
v  -47.0886 0.0000 0.9306
v  -50.0475 0.0000 0.9306
# 16 vertices

vn 0.0000 1.0000 -0.0000
vn 0.0000 -1.0000 -0.0000
# 2 vertex normals

vt -0.2893 0.7292 0.5000
vt -0.3092 0.7292 0.5000
vt -0.2893 0.2708 0.5000
vt -0.3092 0.2708 0.5000
vt -0.3092 1.0000 0.5000
vt -0.4031 1.0000 0.5000
vt -0.3092 0.0000 0.5000
vt -0.4031 0.0000 0.5000
vt -0.4031 0.8155 0.5000
vt -0.4409 0.8155 0.5000
vt -0.4031 0.1845 0.5000
vt -0.4409 0.1845 0.5000
vt -0.4409 0.7844 0.5000
vt -0.5000 0.7844 0.5000
vt -0.4409 0.2156 0.5000
vt -0.5000 0.2156 0.5000
# 16 texture coords

g Ground
usemtl _ExportedObj_Ground_0_ExportedObj_Ground_0Ground
s 1
f 1/1/1 2/2/1 3/3/1 
f 4/4/1 3/3/1 2/2/1 
f 5/5/1 6/6/1 7/7/1 
f 8/8/1 7/7/1 6/6/1 
f 9/9/1 10/10/1 11/11/1 
f 12/12/1 11/11/1 10/10/1 
f 13/13/1 14/14/1 15/15/1 
f 16/16/1 15/15/1 14/14/1 
f 1/1/2 3/3/2 2/2/2 
f 4/4/2 2/2/2 3/3/2 
f 5/5/2 7/7/2 6/6/2 
f 8/8/2 6/6/2 7/7/2 
f 9/9/2 11/11/2 10/10/2 
f 12/12/2 10/10/2 11/11/2 
f 13/13/2 15/15/2 14/14/2 
f 16/16/2 14/14/2 15/15/2 
# 0 polygons - 16 triangles

