# 3ds Max Wavefront OBJ Exporter v0.97b - (c)2007 guruware
# File Created: 05.03.2018 04:44:37

mtllib ExportedObj;Obstacles_5.mtl

#
# object Obstacles
#

v  -45.2768 0.3500 0.1851
v  -45.6453 0.3500 -0.6056
v  -45.4515 0.3500 0.2665
v  -45.8200 0.3500 -0.5242
v  -45.6453 0.0000 -0.6056
v  -45.2768 0.0000 0.1851
v  -45.8200 0.0000 -0.5242
v  -45.4515 0.0000 0.2665
# 8 vertices

vn 0.0000 1.0000 -0.0000
vn 0.9064 0.0000 -0.4224
vn -0.4224 0.0000 -0.9064
vn -0.9064 0.0000 0.4224
vn 0.4224 0.0000 0.9064
# 5 vertex normals

vt -82.8518 0.2878 1.5000
vt -83.5302 1.1944 1.5000
vt -83.1734 0.1944 1.5000
vt -83.8518 1.1011 1.5000
vt -83.5302 1.1944 0.5000
vt -82.8518 0.2878 0.5000
vt -83.8518 1.1011 0.5000
vt -83.1734 0.1944 0.5000
# 8 texture coords

g Obstacles
usemtl _ExportedObj_Obstacles_5_ExportedObj_Obstacles_5Wall
s 1
f 1/1/1 2/2/1 3/3/1 
f 4/4/1 3/3/1 2/2/1 
f 2/2/2 1/1/2 5/5/2 
f 6/6/2 5/5/2 1/1/2 
f 4/4/3 2/2/3 7/7/3 
f 5/5/3 7/7/3 2/2/3 
f 3/3/4 4/4/4 8/8/4 
f 7/7/4 8/8/4 4/4/4 
f 1/1/5 3/3/5 6/6/5 
f 8/8/5 6/6/5 3/3/5 
# 0 polygons - 10 triangles

