# 3ds Max Wavefront OBJ Exporter v0.97b - (c)2007 guruware
# File Created: 05.03.2018 04:40:28

mtllib ExportedObj;Obstacles_1.mtl

#
# object Obstacles
#

v  -43.1566 0.3500 -19.9032
v  -43.7287 0.3500 -20.6478
v  -43.3226 0.3500 -19.7757
v  -43.8947 0.3500 -20.5202
v  -43.7287 0.0000 -20.6478
v  -43.1566 0.0000 -19.9032
v  -43.8947 0.0000 -20.5202
v  -43.3226 0.0000 -19.7757
v  -42.1141 0.3500 -16.0136
v  -42.2488 0.3500 -16.6477
v  -42.6558 0.3500 -15.8985
v  -42.7905 0.3500 -16.5326
v  -42.2488 0.0000 -16.6477
v  -42.1141 0.0000 -16.0136
v  -42.7905 0.0000 -16.5326
v  -42.6558 0.0000 -15.8985
# 16 vertices

vn 0.0000 1.0000 -0.0000
vn 0.7930 0.0000 -0.6093
vn -0.6093 0.0000 -0.7930
vn -0.7930 0.0000 0.6093
vn 0.6093 0.0000 0.7930
vn 0.9782 0.0000 -0.2078
vn -0.2078 0.0000 -0.9782
vn -0.9782 0.0000 0.2078
vn 0.2078 0.0000 0.9782
# 9 vertex normals

vt -23.7371 4.6908 1.5000
vt -24.0584 4.8475 1.5000
vt -23.8304 4.6639 1.5000
vt -24.1517 4.8207 1.5000
vt -24.0584 4.8475 0.5000
vt -23.7371 4.6908 0.5000
vt -24.1517 4.8207 0.5000
vt -23.8304 4.6639 0.5000
vt -23.1517 3.8718 1.5000
vt -23.2273 4.0053 1.5000
vt -23.4559 3.8475 1.5000
vt -23.5315 3.9811 1.5000
vt -23.2273 4.0053 0.5000
vt -23.1517 3.8718 0.5000
vt -23.5315 3.9811 0.5000
vt -23.4559 3.8475 0.5000
# 16 texture coords

g Obstacles
usemtl _ExportedObj_Obstacles_1_ExportedObj_Obstacles_1_ExportedObj_Obstacles_1Wall
s 1
f 1/1/1 2/2/1 3/3/1 
f 4/4/1 3/3/1 2/2/1 
f 2/2/2 1/1/2 5/5/2 
f 6/6/2 5/5/2 1/1/2 
f 4/4/3 2/2/3 7/7/3 
f 5/5/3 7/7/3 2/2/3 
f 3/3/4 4/4/4 8/8/4 
f 7/7/4 8/8/4 4/4/4 
f 1/1/5 3/3/5 6/6/5 
f 8/8/5 6/6/5 3/3/5 
f 9/9/1 10/10/1 11/11/1 
f 12/12/1 11/11/1 10/10/1 
f 10/10/6 9/9/6 13/13/6 
f 14/14/6 13/13/6 9/9/6 
f 12/12/7 10/10/7 15/15/7 
f 13/13/7 15/15/7 10/10/7 
f 11/11/8 12/12/8 16/16/8 
f 15/15/8 16/16/8 12/12/8 
f 9/9/9 11/11/9 14/14/9 
f 16/16/9 14/14/9 11/11/9 
# 0 polygons - 20 triangles

