# 3ds Max Wavefront OBJ Exporter v0.97b - (c)2007 guruware
# File Created: 05.03.2018 04:45:20

mtllib ExportedObj;Walls_1.mtl

#
# object Walls
#

v  0.5000 0.0000 -39.2500
v  0.5000 0.5000 -39.2500
v  0.5000 0.0000 -40.7500
v  0.5000 0.5000 -40.7500
v  -0.5000 0.0000 -39.2500
v  -0.5000 0.5000 -39.2500
v  -0.5000 0.0000 -40.7500
v  -0.5000 0.5000 -40.7500
v  -0.5000 0.0000 -41.9538
v  -0.5000 0.5000 -41.9538
v  -0.5000 0.0000 -38.0462
v  -0.5000 0.5000 -38.0462
v  -2.9221 0.0000 -38.0462
v  -2.9221 0.5000 -38.0462
v  -2.9221 0.0000 -41.9538
v  -2.9221 0.5000 -41.9538
v  -0.8800 0.0000 -41.9538
v  -0.8800 0.5000 -41.9538
v  -2.5421 0.0000 -41.9538
v  -2.5421 0.5000 -41.9538
v  -0.8800 0.0000 -44.8021
v  -0.8800 0.5000 -44.8021
v  -2.5421 0.0000 -44.8021
v  -2.5421 0.5000 -44.8021
v  -0.9040 0.0000 -44.8021
v  -0.9040 0.5000 -44.8021
v  -2.5181 0.0000 -44.8021
v  -2.5181 0.5000 -44.8021
v  -2.5181 0.0000 -47.6326
v  -2.5181 0.5000 -47.6326
v  -0.9040 0.0000 -47.6326
v  -0.9040 0.5000 -47.6326
v  -0.9040 0.0000 -45.1413
v  -0.9040 0.5000 -45.1413
v  -0.9040 0.0000 -47.2935
v  -0.9040 0.5000 -47.2935
v  0.8356 0.0000 -45.1413
v  0.8356 0.5000 -45.1413
v  0.8356 0.0000 -47.2935
v  0.8356 0.5000 -47.2935
# 40 vertices

vn -1.0000 0.0000 -0.0000
vn 0.0000 0.0000 -1.0000
vn 0.0000 0.0000 1.0000
vn 1.0000 0.0000 -0.0000
# 4 vertex normals

vt 0.6331 4.5943 0.5000
vt 0.6331 4.5943 1.5000
vt 0.6331 4.7508 0.5000
vt 0.6331 4.7508 1.5000
vt 0.3669 4.5943 0.5000
vt 0.3669 4.5943 1.5000
vt 0.3669 4.7508 0.5000
vt 0.3669 4.7508 1.5000
vt 0.3669 4.8764 0.5000
vt 0.3669 4.8764 1.5000
vt 0.3669 4.4688 0.5000
vt 0.3669 4.4688 1.5000
vt -0.2776 4.4688 0.5000
vt -0.2776 4.4688 1.5000
vt -0.2776 4.8764 0.5000
vt -0.2776 4.8764 1.5000
vt 0.2658 4.8764 0.5000
vt 0.2658 4.8764 1.5000
vt -0.1765 4.8764 0.5000
vt -0.1765 4.8764 1.5000
vt 0.2658 5.1735 0.5000
vt 0.2658 5.1735 1.5000
vt -0.1765 5.1735 0.5000
vt -0.1765 5.1735 1.5000
vt 0.2594 5.1735 0.5000
vt 0.2594 5.1735 1.5000
vt -0.1701 5.1735 0.5000
vt -0.1701 5.1735 1.5000
vt -0.1701 5.4688 0.5000
vt -0.1701 5.4688 1.5000
vt 0.2594 5.4688 0.5000
vt 0.2594 5.4688 1.5000
vt 0.2594 5.2089 0.5000
vt 0.2594 5.2089 1.5000
vt 0.2594 5.4334 0.5000
vt 0.2594 5.4334 1.5000
vt 0.7224 5.2089 0.5000
vt 0.7224 5.2089 1.5000
vt 0.7224 5.4334 0.5000
vt 0.7224 5.4334 1.5000
# 40 texture coords

g Walls
usemtl _ExportedObj_Walls_1_ExportedObj_Walls_1Wall
s 1
f 1/1/1 2/2/1 3/3/1 
f 4/4/1 3/3/1 2/2/1 
f 5/5/2 6/6/2 1/1/2 
f 2/2/2 1/1/2 6/6/2 
f 1/1/1 2/2/1 3/3/1 
f 4/4/1 3/3/1 2/2/1 
f 5/5/2 6/6/2 1/1/2 
f 2/2/2 1/1/2 6/6/2 
f 3/3/3 4/4/3 7/7/3 
f 8/8/3 7/7/3 4/4/3 
f 7/7/1 8/8/1 9/9/1 
f 10/10/1 9/9/1 8/8/1 
f 11/11/1 12/12/1 5/5/1 
f 6/6/1 5/5/1 12/12/1 
f 13/13/2 14/14/2 11/11/2 
f 12/12/2 11/11/2 14/14/2 
f 15/15/4 16/16/4 13/13/4 
f 14/14/4 13/13/4 16/16/4 
f 9/9/3 10/10/3 17/17/3 
f 18/18/3 17/17/3 10/10/3 
f 19/19/3 20/20/3 15/15/3 
f 16/16/3 15/15/3 20/20/3 
f 17/17/1 18/18/1 21/21/1 
f 22/22/1 21/21/1 18/18/1 
f 23/23/4 24/24/4 19/19/4 
f 20/20/4 19/19/4 24/24/4 
f 21/21/3 22/22/3 25/25/3 
f 26/26/3 25/25/3 22/22/3 
f 27/27/3 28/28/3 23/23/3 
f 24/24/3 23/23/3 28/28/3 
f 29/29/4 30/30/4 27/27/4 
f 28/28/4 27/27/4 30/30/4 
f 31/31/3 32/32/3 29/29/3 
f 30/30/3 29/29/3 32/32/3 
f 25/25/1 26/26/1 33/33/1 
f 34/34/1 33/33/1 26/26/1 
f 35/35/1 36/36/1 31/31/1 
f 32/32/1 31/31/1 36/36/1 
f 37/37/1 38/38/1 39/39/1 
f 40/40/1 39/39/1 38/38/1 
f 33/33/2 34/34/2 37/37/2 
f 38/38/2 37/37/2 34/34/2 
f 39/39/3 40/40/3 35/35/3 
f 36/36/3 35/35/3 40/40/3 
f 1/1/4 3/3/4 2/2/4 
f 4/4/4 2/2/4 3/3/4 
f 5/5/3 1/1/3 6/6/3 
f 2/2/3 6/6/3 1/1/3 
f 1/1/4 3/3/4 2/2/4 
f 4/4/4 2/2/4 3/3/4 
f 5/5/3 1/1/3 6/6/3 
f 2/2/3 6/6/3 1/1/3 
f 3/3/2 7/7/2 4/4/2 
f 8/8/2 4/4/2 7/7/2 
f 7/7/4 9/9/4 8/8/4 
f 10/10/4 8/8/4 9/9/4 
f 11/11/4 5/5/4 12/12/4 
f 6/6/4 12/12/4 5/5/4 
f 13/13/3 11/11/3 14/14/3 
f 12/12/3 14/14/3 11/11/3 
f 15/15/1 13/13/1 16/16/1 
f 14/14/1 16/16/1 13/13/1 
f 9/9/2 17/17/2 10/10/2 
f 18/18/2 10/10/2 17/17/2 
f 19/19/2 15/15/2 20/20/2 
f 16/16/2 20/20/2 15/15/2 
f 17/17/4 21/21/4 18/18/4 
f 22/22/4 18/18/4 21/21/4 
f 23/23/1 19/19/1 24/24/1 
f 20/20/1 24/24/1 19/19/1 
f 21/21/2 25/25/2 22/22/2 
f 26/26/2 22/22/2 25/25/2 
f 27/27/2 23/23/2 28/28/2 
f 24/24/2 28/28/2 23/23/2 
f 29/29/1 27/27/1 30/30/1 
f 28/28/1 30/30/1 27/27/1 
f 31/31/2 29/29/2 32/32/2 
f 30/30/2 32/32/2 29/29/2 
f 25/25/4 33/33/4 26/26/4 
f 34/34/4 26/26/4 33/33/4 
f 35/35/4 31/31/4 36/36/4 
f 32/32/4 36/36/4 31/31/4 
f 37/37/4 39/39/4 38/38/4 
f 40/40/4 38/38/4 39/39/4 
f 33/33/3 37/37/3 34/34/3 
f 38/38/3 34/34/3 37/37/3 
f 39/39/2 35/35/2 40/40/2 
f 36/36/2 40/40/2 35/35/2 
# 0 polygons - 88 triangles

