# 3ds Max Wavefront OBJ Exporter v0.97b - (c)2007 guruware
# File Created: 05.03.2018 04:43:11

mtllib ExportedObj;Walls_3.mtl

#
# object Walls
#

v  -39.5000 0.0000 -19.2500
v  -39.5000 0.5000 -19.2500
v  -39.5000 0.0000 -20.7500
v  -39.5000 0.5000 -20.7500
v  -40.5000 0.0000 -19.2500
v  -40.5000 0.5000 -19.2500
v  -40.5000 0.0000 -20.7500
v  -40.5000 0.5000 -20.7500
v  -40.5000 0.0000 -21.0550
v  -40.5000 0.5000 -21.0550
v  -40.5000 0.0000 -18.9450
v  -40.5000 0.5000 -18.9450
v  -42.7033 0.0000 -18.9450
v  -42.7033 0.5000 -18.9450
v  -42.7033 0.0000 -21.0550
v  -42.7033 0.5000 -21.0550
v  -42.7033 0.0000 -21.0529
v  -42.7033 0.5000 -21.0529
v  -42.7033 0.0000 -18.9471
v  -42.7033 0.5000 -18.9471
v  -47.3800 0.0000 -21.0529
v  -47.3800 0.5000 -21.0529
v  -47.3800 0.0000 -18.9471
v  -47.3800 0.5000 -18.9471
v  -46.6103 0.0000 -18.9471
v  -46.6103 0.5000 -18.9471
v  -43.4731 0.0000 -18.9471
v  -43.4731 0.5000 -18.9471
v  -46.6103 0.0000 -13.9696
v  -46.6103 0.5000 -13.9696
v  -43.4731 0.0000 -13.9696
v  -43.4731 0.5000 -13.9696
v  -43.4731 0.0000 -14.0400
v  -43.4731 0.5000 -14.0400
v  -43.4731 0.0000 -18.8767
v  -43.4731 0.5000 -18.8767
v  -39.4367 0.0000 -14.0400
v  -39.4367 0.5000 -14.0400
v  -39.4367 0.0000 -18.8767
v  -39.4367 0.5000 -18.8767
# 40 vertices

vn -1.0000 0.0000 -0.0000
vn 0.0000 0.0000 -1.0000
vn 0.0000 0.0000 1.0000
vn 1.0000 0.0000 -0.0001
vn 1.0000 0.0000 0.0001
vn 1.0000 0.0000 -0.0000
vn -1.0000 0.0000 0.0001
vn -1.0000 0.0000 -0.0001
# 8 vertex normals

vt -4.4727 3.2169 0.5000
vt -4.4727 3.2169 1.5000
vt -4.4727 3.4286 0.5000
vt -4.4727 3.4286 1.5000
vt -4.5986 3.2169 0.5000
vt -4.5986 3.2169 1.5000
vt -4.5986 3.4286 0.5000
vt -4.5986 3.4286 1.5000
vt -4.5986 3.4716 0.5000
vt -4.5986 3.4716 1.5000
vt -4.5986 3.1738 0.5000
vt -4.5986 3.1738 1.5000
vt -4.8760 3.1738 0.5000
vt -4.8760 3.1738 1.5000
vt -4.8760 3.4716 0.5000
vt -4.8760 3.4716 1.5000
vt -4.8760 3.4713 0.5000
vt -4.8760 3.4713 1.5000
vt -4.8760 3.1741 0.5000
vt -4.8760 3.1741 1.5000
vt -5.4648 3.4713 0.5000
vt -5.4648 3.4713 1.5000
vt -5.4648 3.1741 0.5000
vt -5.4648 3.1741 1.5000
vt -5.3679 3.1741 0.5000
vt -5.3679 3.1741 1.5000
vt -4.9729 3.1741 0.5000
vt -4.9729 3.1741 1.5000
vt -5.3679 2.4716 0.5000
vt -5.3679 2.4716 1.5000
vt -4.9729 2.4716 0.5000
vt -4.9729 2.4716 1.5000
vt -4.9729 2.4816 0.5000
vt -4.9729 2.4816 1.5000
vt -4.9729 3.1642 0.5000
vt -4.9729 3.1642 1.5000
vt -4.4648 2.4816 0.5000
vt -4.4648 2.4816 1.5000
vt -4.4648 3.1642 0.5000
vt -4.4648 3.1642 1.5000
# 40 texture coords

g Walls
usemtl _ExportedObj_Walls_0Wall
s 1
f 1/1/1 2/2/1 3/3/1 
f 4/4/1 3/3/1 2/2/1 
f 5/5/2 6/6/2 1/1/2 
f 2/2/2 1/1/2 6/6/2 
f 1/1/1 2/2/1 3/3/1 
f 4/4/1 3/3/1 2/2/1 
f 5/5/2 6/6/2 1/1/2 
f 2/2/2 1/1/2 6/6/2 
f 3/3/3 4/4/3 7/7/3 
f 8/8/3 7/7/3 4/4/3 
f 7/7/1 8/8/1 9/9/1 
f 10/10/1 9/9/1 8/8/1 
f 11/11/1 12/12/1 5/5/1 
f 6/6/1 5/5/1 12/12/1 
f 13/13/2 14/14/2 11/11/2 
f 12/12/2 11/11/2 14/14/2 
f 9/9/3 10/10/3 15/15/3 
f 16/16/3 15/15/3 10/10/3 
f 15/15/4 16/16/4 17/17/4 
f 18/18/4 17/17/4 16/16/4 
f 19/19/5 20/20/5 13/13/5 
f 14/14/5 13/13/5 20/20/5 
f 21/21/6 22/22/6 23/23/6 
f 24/24/6 23/23/6 22/22/6 
f 17/17/3 18/18/3 21/21/3 
f 22/22/3 21/21/3 18/18/3 
f 23/23/2 24/24/2 25/25/2 
f 26/26/2 25/25/2 24/24/2 
f 27/27/2 28/28/2 19/19/2 
f 20/20/2 19/19/2 28/28/2 
f 29/29/2 30/30/2 31/31/2 
f 32/32/2 31/31/2 30/30/2 
f 25/25/6 26/26/6 29/29/6 
f 30/30/6 29/29/6 26/26/6 
f 31/31/1 32/32/1 33/33/1 
f 34/34/1 33/33/1 32/32/1 
f 35/35/1 36/36/1 27/27/1 
f 28/28/1 27/27/1 36/36/1 
f 37/37/1 38/38/1 39/39/1 
f 40/40/1 39/39/1 38/38/1 
f 33/33/2 34/34/2 37/37/2 
f 38/38/2 37/37/2 34/34/2 
f 39/39/3 40/40/3 35/35/3 
f 36/36/3 35/35/3 40/40/3 
f 1/1/6 3/3/6 2/2/6 
f 4/4/6 2/2/6 3/3/6 
f 5/5/3 1/1/3 6/6/3 
f 2/2/3 6/6/3 1/1/3 
f 1/1/6 3/3/6 2/2/6 
f 4/4/6 2/2/6 3/3/6 
f 5/5/3 1/1/3 6/6/3 
f 2/2/3 6/6/3 1/1/3 
f 3/3/2 7/7/2 4/4/2 
f 8/8/2 4/4/2 7/7/2 
f 7/7/6 9/9/6 8/8/6 
f 10/10/6 8/8/6 9/9/6 
f 11/11/6 5/5/6 12/12/6 
f 6/6/6 12/12/6 5/5/6 
f 13/13/3 11/11/3 14/14/3 
f 12/12/3 14/14/3 11/11/3 
f 9/9/2 15/15/2 10/10/2 
f 16/16/2 10/10/2 15/15/2 
f 15/15/7 17/17/7 16/16/7 
f 18/18/7 16/16/7 17/17/7 
f 19/19/8 13/13/8 20/20/8 
f 14/14/8 20/20/8 13/13/8 
f 21/21/1 23/23/1 22/22/1 
f 24/24/1 22/22/1 23/23/1 
f 17/17/2 21/21/2 18/18/2 
f 22/22/2 18/18/2 21/21/2 
f 23/23/3 25/25/3 24/24/3 
f 26/26/3 24/24/3 25/25/3 
f 27/27/3 19/19/3 28/28/3 
f 20/20/3 28/28/3 19/19/3 
f 29/29/3 31/31/3 30/30/3 
f 32/32/3 30/30/3 31/31/3 
f 25/25/1 29/29/1 26/26/1 
f 30/30/1 26/26/1 29/29/1 
f 31/31/6 33/33/6 32/32/6 
f 34/34/6 32/32/6 33/33/6 
f 35/35/6 27/27/6 36/36/6 
f 28/28/6 36/36/6 27/27/6 
f 37/37/6 39/39/6 38/38/6 
f 40/40/6 38/38/6 39/39/6 
f 33/33/3 37/37/3 34/34/3 
f 38/38/3 34/34/3 37/37/3 
f 39/39/2 35/35/2 40/40/2 
f 36/36/2 40/40/2 35/35/2 
# 0 polygons - 88 triangles

